<?xml version="1.0" standalone="no"?>
<!DOCTYPE svg PUBLIC "-//W3C//DTD SVG 20010904//EN"
 "http://www.w3.org/TR/2001/REC-SVG-20010904/DTD/svg10.dtd">
<svg version="1.0" xmlns="http://www.w3.org/2000/svg"
 width="780.000000pt" height="390.000000pt" viewBox="0 0 780.000000 390.000000"
 preserveAspectRatio="xMidYMid meet">

<g transform="translate(0.000000,390.000000) scale(0.100000,-0.100000)"
fill="#000000" stroke="none">
<path d="M4432 3634 c-113 -56 -222 -232 -307 -495 -53 -165 -108 -424 -126
-596 l-13 -118 -61 -60 c-116 -115 -232 -175 -336 -175 -45 0 -60 3 -56 13
128 310 140 500 36 561 -70 41 -162 -6 -214 -109 -28 -55 -30 -68 -30 -165 0
-99 2 -110 33 -172 30 -61 65 -101 110 -127 16 -9 15 -14 -7 -53 -74 -134
-177 -256 -245 -290 l-40 -20 -22 25 c-32 38 -44 110 -44 275 0 152 16 319 46
467 19 98 13 115 -41 115 -26 0 -39 -7 -57 -31 -47 -62 -83 -91 -172 -134 -95
-46 -237 -86 -386 -107 -134 -20 -400 -15 -580 10 -382 52 -713 55 -912 8
-206 -48 -328 -105 -406 -190 -48 -52 -54 -71 -50 -151 3 -56 5 -60 27 -60 38
0 48 27 23 60 -12 15 -22 41 -22 58 0 68 176 190 340 236 218 60 414 65 803
19 235 -28 303 -32 502 -32 190 1 251 5 349 23 189 34 318 79 408 142 14 11
28 19 31 19 2 0 -1 -26 -6 -57 -6 -32 -11 -146 -10 -253 0 -216 15 -306 66
-392 30 -52 84 -83 124 -73 71 17 192 140 281 285 l46 75 71 0 c113 0 226 54
336 161 l55 55 0 -218 c0 -134 5 -243 13 -283 16 -88 55 -167 91 -185 123 -64
280 83 584 548 64 98 121 175 125 172 5 -3 42 13 83 34 150 82 368 118 647
108 141 -5 195 -12 361 -47 485 -102 720 -122 970 -85 292 43 456 144 461 286
1 30 -1 61 -5 67 -10 17 -41 15 -56 -3 -11 -13 -9 -21 8 -45 12 -16 22 -36 22
-45 0 -32 -30 -74 -79 -109 -105 -78 -241 -118 -456 -135 -160 -14 -273 -4
-514 44 -409 80 -527 97 -722 102 -280 8 -458 -18 -619 -92 -41 -19 -84 -35
-95 -37 -13 -2 -64 -69 -155 -205 -169 -252 -253 -364 -329 -441 -71 -72 -110
-94 -159 -90 -47 4 -71 43 -83 141 -18 144 45 637 89 694 9 12 60 75 113 140
123 150 216 289 284 425 73 146 99 232 99 338 1 101 -20 152 -74 182 -47 25
-87 23 -148 -8z m140 -15 c28 -15 58 -86 58 -140 0 -146 -111 -396 -283 -635
-83 -116 -188 -247 -193 -241 -6 5 19 170 46 307 65 330 171 615 256 690 37
32 79 39 116 19z m-1021 -875 c83 -43 78 -221 -13 -446 -18 -45 -39 -83 -45
-85 -23 -8 -100 82 -122 141 -25 68 -28 178 -6 252 17 58 66 121 109 140 40
17 41 17 77 -2z"/>
<path d="M388 1273 c6 -2 18 -2 25 0 6 3 1 5 -13 5 -14 0 -19 -2 -12 -5z"/>
<path d="M874 1271 c4 -6 16 -11 26 -11 27 0 90 -58 106 -97 16 -38 18 -131 4
-169 -6 -14 -25 -40 -43 -57 l-32 -31 34 20 c136 77 113 306 -35 339 -16 4
-37 9 -48 12 -12 3 -16 1 -12 -6z"/>
<path d="M4538 1273 c7 -3 16 -2 19 1 4 3 -2 6 -13 5 -11 0 -14 -3 -6 -6z"/>
<path d="M4831 1240 c0 -33 1 -33 11 -12 13 26 40 35 89 30 l34 -3 0 -170 0
-169 -25 -7 c-15 -4 2 -7 45 -7 39 1 60 3 49 5 -30 6 -34 27 -34 178 0 174 1
175 60 175 51 0 66 -10 80 -57 7 -24 8 -21 9 22 l1 50 -160 0 -160 0 1 -35z"/>
<path d="M5485 1270 c3 -5 13 -10 22 -10 29 0 79 -39 102 -81 18 -31 24 -57
24 -103 0 -65 -11 -94 -47 -135 l-21 -24 22 12 c33 17 70 70 83 119 23 86 -38
201 -115 217 -14 3 -37 7 -51 10 -16 4 -23 2 -19 -5z"/>
<path d="M295 1256 c-119 -52 -148 -217 -53 -302 30 -28 82 -54 105 -54 12 1
8 5 -12 14 -37 17 -80 62 -94 99 -15 40 -14 133 3 165 18 34 54 68 86 81 14 5
18 10 10 10 -8 0 -28 -6 -45 -13z"/>
<path d="M462 1253 c15 -10 34 -31 43 -48 l15 -30 0 32 c0 35 -29 63 -65 63
-17 0 -17 -3 7 -17z"/>
<path d="M1234 1254 c13 -13 16 -42 16 -167 0 -84 -4 -157 -8 -163 -4 -7 -16
-14 -27 -17 -11 -2 12 -5 50 -6 63 -1 67 1 45 12 -25 12 -25 14 -28 157 -3
162 0 186 26 193 9 3 -7 5 -36 6 -49 1 -52 0 -38 -15z"/>
<path d="M1368 1263 c6 -2 18 -2 25 0 6 3 1 5 -13 5 -14 0 -19 -2 -12 -5z"/>
<path d="M1693 1259 c9 -6 44 -50 78 -100 l60 -89 -3 -77 c-3 -73 -4 -78 -28
-84 -15 -4 2 -7 45 -7 39 0 61 3 50 5 -30 8 -35 21 -35 101 0 71 1 75 50 146
27 41 61 83 76 95 l27 21 -43 0 c-34 0 -40 -3 -32 -13 9 -10 7 -21 -6 -44 -49
-85 -66 -113 -72 -113 -14 0 -101 142 -96 156 4 11 -5 14 -42 14 -37 -1 -43
-3 -29 -11z"/>
<path d="M2383 1257 c16 -11 17 -31 15 -177 l-3 -164 -25 -7 c-14 -4 32 -7
103 -8 l127 -1 0 30 0 29 -25 -24 c-19 -20 -34 -25 -73 -25 -26 0 -53 5 -60
12 -7 7 -12 43 -12 90 l0 79 57 -3 c49 -3 59 -7 69 -26 10 -21 12 -18 12 30 0
40 -3 47 -9 31 -7 -20 -15 -23 -69 -23 l-60 0 0 68 c0 40 5 73 12 80 7 7 33
12 59 12 39 0 51 -5 68 -26 l21 -27 0 32 0 31 -112 0 c-92 0 -109 -2 -95 -13z"/>
<path d="M2773 1257 c16 -11 17 -31 15 -177 l-3 -164 -25 -7 c-14 -4 39 -7
118 -8 l142 -1 0 30 0 29 -25 -25 c-22 -22 -32 -25 -93 -22 l-67 3 -3 169 c-2
129 1 171 10 178 8 4 -7 8 -36 8 -42 0 -47 -2 -33 -13z"/>
<path d="M3174 1254 c13 -13 16 -42 16 -167 0 -84 -4 -157 -8 -163 -4 -7 -16
-14 -27 -17 -11 -2 41 -5 116 -6 134 -1 137 -1 143 22 3 12 6 31 5 42 0 19 -1
19 -9 -2 -16 -39 -52 -54 -122 -51 l-63 3 -3 165 c-2 146 -1 166 15 177 14 11
10 13 -31 13 -43 0 -46 -1 -32 -16z"/>
<path d="M3573 1257 c16 -11 17 -31 15 -177 l-3 -164 -25 -7 c-15 -4 2 -7 45
-7 39 0 61 3 50 5 -11 3 -23 10 -27 17 -4 6 -8 79 -8 163 0 125 3 154 16 167
14 15 11 16 -32 16 -41 0 -45 -2 -31 -13z"/>
<path d="M3838 1258 c21 -11 22 -15 22 -163 0 -153 -5 -175 -40 -188 -8 -3 10
-5 40 -5 30 0 48 2 40 5 -27 11 -30 26 -30 177 l0 148 138 -167 137 -166 5
171 c5 155 7 173 24 186 18 13 16 14 -24 14 -38 0 -41 -2 -27 -13 15 -11 17
-29 15 -152 l-3 -140 -124 153 c-119 146 -125 152 -160 151 -33 0 -34 -1 -13
-11z"/>
<path d="M4602 1254 c15 -8 34 -27 42 -42 l15 -27 1 33 c0 26 -5 34 -26 42
-41 16 -64 12 -32 -6z"/>
<path d="M5838 1260 c22 -9 22 -13 22 -169 0 -154 -1 -160 -22 -175 -21 -15
-20 -16 32 -16 51 0 53 1 30 13 -25 12 -25 14 -28 167 -1 91 1 151 6 145 5 -6
67 -80 137 -165 70 -85 131 -156 136 -158 5 -2 9 75 9 172 0 156 2 176 18 185
13 8 8 10 -25 11 l-43 0 20 -20 c18 -18 20 -33 20 -157 l-1 -138 -34 40 c-19
22 -76 93 -127 157 -91 114 -94 117 -133 117 -34 0 -36 -2 -17 -9z"/>
<path d="M6573 1257 c16 -11 17 -31 15 -177 l-3 -164 -25 -7 c-14 -4 39 -7
118 -8 l142 -1 0 38 c-1 33 -2 35 -12 17 -6 -11 -19 -25 -27 -32 -21 -16 -133
-17 -149 -1 -8 8 -12 59 -12 164 0 125 3 155 16 168 14 15 11 16 -32 16 -41 0
-45 -2 -31 -13z"/>
<path d="M6973 1257 c16 -11 17 -31 15 -177 l-3 -164 -25 -7 c-14 -4 32 -7
103 -8 l127 -1 0 30 0 29 -25 -24 c-19 -20 -34 -25 -73 -25 -26 0 -53 5 -60
12 -7 7 -12 43 -12 90 l0 79 57 -3 c49 -3 59 -7 69 -26 10 -21 12 -18 12 30 0
40 -3 47 -9 31 -7 -20 -15 -23 -69 -23 l-60 0 0 68 c0 40 5 73 12 80 7 7 33
12 59 12 39 0 51 -5 68 -26 l21 -27 0 32 0 31 -112 0 c-92 0 -109 -2 -95 -13z"/>
<path d="M7374 1255 c13 -14 16 -42 16 -168 0 -84 -4 -157 -8 -163 -4 -7 -16
-14 -27 -17 -11 -2 37 -5 108 -6 l127 -1 0 30 0 29 -25 -24 c-19 -20 -34 -25
-73 -25 -26 0 -53 5 -60 12 -7 7 -12 43 -12 90 l0 78 46 0 c25 0 54 -5 65 -10
17 -9 19 -7 19 17 0 21 -3 24 -12 15 -7 -7 -36 -12 -65 -12 l-53 0 0 64 c0 92
3 96 65 96 52 0 73 -12 88 -50 4 -8 5 1 4 20 l-2 35 -109 3 c-99 2 -107 1 -92
-13z"/>
<path d="M1439 1234 c94 -79 93 -245 -2 -305 -27 -17 -28 -19 -7 -13 95 27
148 156 104 251 -18 37 -64 76 -104 88 -22 7 -21 5 9 -21z"/>
<path d="M4409 1237 c-18 -12 -44 -38 -57 -57 -20 -30 -23 -45 -20 -101 3 -54
9 -73 31 -103 31 -39 93 -76 129 -76 18 0 14 4 -17 19 -48 22 -69 44 -90 94
-32 78 -14 171 44 220 39 33 27 36 -20 4z"/>
<path d="M726 1215 c-83 -83 -67 -225 33 -292 19 -13 48 -23 65 -23 l31 0 -40
20 c-99 49 -134 199 -70 294 31 45 25 45 -19 1z"/>
<path d="M5338 1213 c-39 -42 -51 -72 -51 -127 -1 -97 61 -174 145 -182 38 -3
40 -3 14 6 -99 32 -151 187 -97 290 11 22 19 40 18 40 -2 0 -15 -12 -29 -27z"/>
<path d="M4618 1028 c7 -7 12 -31 12 -54 0 -33 -5 -47 -22 -60 -23 -16 -23
-16 11 -10 18 3 36 6 40 6 3 0 6 29 6 65 l0 65 -29 0 c-23 0 -27 -3 -18 -12z"/>
<path d="M509 963 c-8 -14 -27 -35 -44 -45 -33 -20 -24 -23 22 -7 24 8 32 18
36 42 6 41 4 43 -14 10z"/>
<path d="M1368 903 c6 -2 18 -2 25 0 6 3 1 5 -13 5 -14 0 -19 -2 -12 -5z"/>
<path d="M3000 415 c-7 -8 -8 -15 -2 -15 5 0 15 7 22 15 7 8 8 15 2 15 -5 0
-15 -7 -22 -15z"/>
<path d="M3068 423 c15 -6 16 -57 1 -86 -7 -12 -27 -41 -46 -64 l-34 -43 60 0
c47 0 61 3 61 14 0 12 -6 13 -29 5 -17 -6 -39 -9 -50 -7 -18 3 -15 9 24 56 29
35 45 64 45 81 0 28 -16 52 -34 50 -6 0 -5 -3 2 -6z"/>
<path d="M3233 420 c-19 -8 -23 -16 -21 -47 l1 -38 4 38 c4 37 5 37 49 37 24
0 44 5 44 10 0 12 -47 12 -77 0z"/>
<path d="M3561 421 c-9 -6 -10 -11 -2 -15 15 -10 14 -149 -1 -164 -9 -9 -7
-12 12 -12 l25 0 -3 100 c-2 55 -6 100 -10 100 -4 0 -13 -4 -21 -9z"/>
<path d="M3785 422 c-5 -4 -10 -49 -10 -99 0 -93 0 -93 25 -93 16 0 20 3 13 8
-8 5 -13 41 -15 100 -2 58 -7 89 -13 84z"/>
<path d="M4081 421 c-9 -6 -10 -11 -2 -15 15 -10 14 -149 -1 -164 -9 -9 -7
-12 12 -12 l25 0 -3 100 c-2 55 -6 100 -10 100 -4 0 -13 -4 -21 -9z"/>
<path d="M4256 408 c-32 -46 -8 -89 47 -87 28 2 29 2 7 6 -51 10 -66 49 -33
85 9 10 11 18 5 18 -6 0 -18 -10 -26 -22z"/>
<path d="M4333 412 c12 -13 17 -36 17 -73 0 -65 -20 -99 -58 -100 -15 0 -21
-3 -14 -6 25 -10 62 8 77 37 27 52 15 140 -21 154 -17 6 -17 6 -1 -12z"/>
<path d="M4482 423 c-7 -3 -18 -16 -23 -30 -14 -39 12 -73 54 -72 31 2 31 2 4
6 -39 6 -55 44 -33 78 9 14 15 25 14 24 -2 0 -9 -3 -16 -6z"/>
<path d="M4545 410 c24 -27 25 -108 2 -143 -9 -14 -29 -27 -44 -30 l-28 -4 28
-2 c47 -2 77 38 77 101 0 53 -19 98 -42 98 -6 0 -3 -9 7 -20z"/>
<path d="M4686 414 c-19 -18 -21 -65 -4 -82 7 -7 26 -11 43 -11 l30 1 -30 7
c-25 5 -31 11 -33 41 -3 24 2 38 14 47 10 7 13 13 7 13 -7 0 -19 -7 -27 -16z"/>
<path d="M4756 416 c15 -12 19 -27 19 -74 0 -73 -23 -106 -68 -99 -16 2 -24 0
-19 -5 18 -18 65 -3 86 25 38 51 19 167 -27 167 -6 0 -2 -6 9 -14z"/>
<path d="M3283 329 c21 -12 23 -62 2 -79 -8 -7 -28 -10 -44 -8 -17 2 -28 1
-25 -4 9 -13 58 -9 82 8 37 26 25 95 -17 94 -13 -1 -13 -2 2 -11z"/>
<path d="M3406 253 c-11 -11 -6 -23 9 -23 8 0 15 4 15 9 0 13 -16 22 -24 14z"/>
<path d="M3927 254 c-8 -8 1 -24 14 -24 5 0 9 7 9 15 0 15 -12 20 -23 9z"/>
</g>
</svg>
